HIERARCHY
ROOT Hips
{
	OFFSET	0.00  0.00  0.00 
	CHANNELS 6 Xposition Yposition Zposition Xrotation Zrotation Yrotation
	JOINT Abdomen
	{
		OFFSET	0.00 0.00 0.00
		CHANNELS 3 Xrotation Zrotation Yrotation
		JOINT Chest
		{
			OFFSET	0.00 5.01 -1.89
			CHANNELS 3 Xrotation Zrotation Yrotation
			JOINT Neck
			{
				OFFSET	0.00 10.60 0.39
				CHANNELS 3 Xrotation Zrotation Yrotation
				JOINT Head
				{
					OFFSET	0.00 3.50 0.53
					CHANNELS 3 Xrotation Zrotation Yrotation
					End Site
					{
						OFFSET 0.00 10.35 0.00
					}
				}
			}
			JOINT LeftCollar
			{
				OFFSET	0.60 8.32 0.78
				CHANNELS 3 Xrotation Zrotation Yrotation
				JOINT LeftUpArm
				{
					OFFSET	6.42 0.01 -0.33
					CHANNELS 3 Xrotation Zrotation Yrotation
					JOINT LeftLowArm
					{
						OFFSET	10.55 0.03 0.13
						CHANNELS 3 Xrotation Zrotation Yrotation
						JOINT LeftHand
						{
							OFFSET	11.04 0.32 0.04
							CHANNELS 3 Xrotation Zrotation Yrotation
							End Site
							{
								OFFSET 10.35 0.00 0.00
							}
						}
					}
				}
			}
			JOINT RightCollar
			{
				OFFSET	-0.60 8.32 0.78
				CHANNELS 3 Xrotation Zrotation Yrotation
				JOINT RightUpArm
				{
					OFFSET	-6.42 0.01 -0.33
					CHANNELS 3 Xrotation Zrotation Yrotation
					JOINT RightLowArm
					{
						OFFSET	-10.55 0.03 0.13
						CHANNELS 3 Xrotation Zrotation Yrotation
						JOINT RightHand
						{
							OFFSET	-11.04 0.32 0.04
							CHANNELS 3 Xrotation Zrotation Yrotation
							End Site
							{
								OFFSET -10.35 0.00 0.00
							}
						}
					}
				}
			}
		}
	}
	JOINT LeftUpLeg
	{
		OFFSET	4.50 -6.40 -1.83
		CHANNELS 3 Xrotation Zrotation Yrotation
		JOINT LeftLowLeg
		{
			OFFSET	-1.36 -18.91 1.18
			CHANNELS 3 Xrotation Zrotation Yrotation
			JOINT LeftFoot
			{
				OFFSET	-0.65 -17.21 -0.31
				CHANNELS 3 Xrotation Zrotation Yrotation
				End Site
				{
					OFFSET 0.00 0.00 10.35
				}
			}
		}
	}
	JOINT RightUpLeg
	{
		OFFSET	-4.50 -6.40 -1.83
		CHANNELS 3 Xrotation Zrotation Yrotation
		JOINT RightLowLeg
		{
			OFFSET	1.36 -18.91 1.18
			CHANNELS 3 Xrotation Zrotation Yrotation
			JOINT RightFoot
			{
				OFFSET	0.65 -17.21 -0.31
				CHANNELS 3 Xrotation Zrotation Yrotation
				End Site
				{
					OFFSET 0.00 0.00 10.35
				}
			}
		}
	}
}
MOTION
Frames:     17
Frame Time: 0.066667
-35.33	41.59	-63.84	16.98	15.00	-370.09	 3.93	-15.50	 9.99	0.0	0.0	0.0	-17.48	-5.39	 2.05	0.0	0.0	0.0	0.0	0.0	0.0	 6.08	-28.23	-70.08	-44.55	33.86	-97.04	-104.91	-23.41	-0.67	0.0	0.0	0.0	73.53	42.08	79.75	-25.76	 5.68	-3.64	-46.43	-62.55	15.51	-23.93	-6.78	 5.79	-1.27	-8.21	 7.97	 6.73	10.38	 6.65	-60.68	 1.48	 8.60	65.34	-17.59	-0.52	35.46	 4.99	11.42
-34.91	43.39	-64.13	16.63	 6.96	-381.65	 5.67	-12.78	 6.82	0.0	0.0	0.0	-18.65	 0.08	 5.34	0.0	0.0	0.0	0.0	0.0	0.0	-1.12	-34.96	-64.44	-46.44	33.51	-96.82	-106.66	-23.57	 0.19	0.0	0.0	0.0	54.06	33.15	78.71	-18.83	 3.60	 0.63	-38.24	-63.57	16.01	-31.59	 7.04	10.45	19.27	-6.82	 3.29	 1.86	 6.95	 9.53	-47.58	10.38	 8.82	49.46	-11.26	 6.15	22.84	-0.21	 4.86
-34.49	42.85	-63.16	19.48	-1.14	-387.59	 7.90	-8.38	 6.81	0.0	0.0	0.0	-21.58	 2.97	10.39	0.0	0.0	0.0	0.0	0.0	0.0	-9.92	-41.71	-57.53	-47.67	33.12	-93.66	-108.06	-24.08	 1.47	0.0	0.0	0.0	39.40	24.17	79.79	-19.33	 2.13	 2.02	-34.96	-65.57	16.93	-51.41	18.99	 1.01	52.52	-3.17	-2.37	10.41	 1.75	 4.95	-31.88	18.49	 7.87	19.97	-6.93	 8.35	13.45	 1.86	 4.99
-33.77	42.09	-64.15	19.45	-9.05	-395.26	 9.44	-2.01	11.36	0.0	0.0	0.0	-21.58	 3.47	14.99	0.0	0.0	0.0	0.0	0.0	0.0	-15.89	-47.71	-50.40	-48.95	33.30	-88.97	-108.39	-23.81	 1.64	0.0	0.0	0.0	36.74	25.17	77.01	-17.51	 1.62	 3.26	-30.75	-65.13	15.13	-57.73	25.67	-6.73	68.63	 2.88	-0.88	23.73	-2.12	-3.59	-16.78	24.14	10.28	 3.07	-2.12	 6.16	 7.45	-4.24	 6.80
-33.68	40.94	-64.26	18.04	-9.06	-394.97	10.68	-0.20	18.01	0.0	0.0	0.0	-22.87	 3.35	13.87	0.0	0.0	0.0	0.0	0.0	0.0	-23.48	-55.14	-35.05	-47.35	33.03	-84.69	-107.16	-21.24	-1.04	0.0	0.0	0.0	34.68	33.67	68.80	-12.97	 2.60	 3.14	-29.20	-64.03	13.45	-58.21	20.58	-11.29	70.25	 2.00	 1.59	28.31	-1.43	 0.98	-14.22	23.87	13.41	 2.23	-2.30	 6.72	 4.95	-6.88	 2.92
-34.11	41.82	-65.04	18.42	-4.04	-383.96	11.23	-2.70	17.19	0.0	0.0	0.0	-27.49	 4.27	10.00	0.0	0.0	0.0	0.0	0.0	0.0	-26.73	-57.08	-18.24	-44.44	33.09	-74.82	-104.11	-17.09	-3.55	0.0	0.0	0.0	35.37	35.10	67.87	-15.63	 4.95	 0.48	-35.40	-65.29	12.17	-61.39	10.62	-12.66	64.32	 1.43	 1.32	33.81	 0.38	 0.51	-22.88	18.55	11.09	 5.91	-4.30	 3.87	 5.78	-3.69	-2.03
-33.99	42.13	-65.40	18.54	-3.25	-380.24	11.39	-4.44	15.01	0.0	0.0	0.0	-28.56	 5.19	 8.23	0.0	0.0	0.0	0.0	0.0	0.0	-14.52	-56.32	-11.93	-39.37	32.41	-57.58	-94.49	-10.16	-7.30	0.0	0.0	0.0	37.25	34.19	75.41	-14.81	 3.99	 1.00	-31.60	-65.74	13.32	-61.87	12.82	-5.93	61.96	 0.78	 3.36	33.84	 6.18	-4.39	-25.80	15.57	10.08	 7.33	-3.66	 2.23	 6.77	-0.04	-1.46
-33.76	41.17	-65.38	21.20	-6.39	-390.32	10.92	 0.03	15.72	0.0	0.0	0.0	-27.58	 4.60	14.23	0.0	0.0	0.0	0.0	0.0	0.0	 8.80	-61.06	-14.45	-30.00	34.76	-44.69	-73.37	 4.11	-11.14	0.0	0.0	0.0	34.47	26.39	82.64	-19.35	 3.61	 1.13	-27.25	-65.42	13.00	-68.02	26.64	-6.90	72.93	-1.29	 2.63	27.64	 2.75	-9.81	-22.57	23.02	13.37	 3.05	-2.83	 6.51	 6.05	-5.12	-1.44
-34.12	40.65	-65.54	20.91	-8.08	-392.15	10.31	 4.05	16.87	0.0	0.0	0.0	-26.04	 1.73	15.62	0.0	0.0	0.0	0.0	0.0	0.0	44.54	-65.23	-35.72	-16.63	34.74	-33.00	-46.04	22.72	-10.32	0.0	0.0	0.0	34.30	33.89	73.43	-10.67	 3.15	 1.45	-22.17	-65.39	 8.33	-67.95	29.17	-7.91	74.18	-1.08	 1.12	27.44	 2.16	-9.35	-19.33	23.05	13.71	-0.49	-0.34	 5.48	 5.63	-0.57	-0.74
-34.29	41.85	-65.56	18.60	-1.35	-376.14	11.46	-0.00	15.29	0.0	0.0	0.0	-30.02	-1.04	 6.48	0.0	0.0	0.0	0.0	0.0	0.0	72.92	-59.57	-58.92	-4.96	32.35	-25.27	-26.91	34.62	-5.94	0.0	0.0	0.0	37.26	38.10	55.81	-15.15	 3.19	 1.56	-34.45	-63.18	12.28	-59.42	12.43	-3.98	58.17	-1.71	-2.43	22.99	 2.57	-2.63	-27.93	12.91	 5.17	10.80	-4.67	 1.83	 0.47	 0.96	-2.37
-33.83	42.85	-66.71	18.12	 4.09	-365.86	12.04	-4.66	12.28	0.0	0.0	0.0	-31.04	-1.31	 1.19	0.0	0.0	0.0	0.0	0.0	0.0	84.14	-49.31	-69.63	 2.74	30.21	-21.92	-19.91	40.38	-2.39	0.0	0.0	0.0	48.66	43.55	59.73	-16.21	 4.93	-0.81	-42.23	-65.25	13.84	-47.16	 3.28	-1.05	37.10	-6.78	 3.32	11.23	 4.72	 1.15	-44.90	 3.68	-0.70	38.17	-8.28	 1.31	 2.06	 3.03	-2.45
-33.82	41.30	-66.67	16.24	 8.46	-370.26	11.52	-8.93	 8.71	0.0	0.0	0.0	-28.98	 1.12	 5.72	0.0	0.0	0.0	0.0	0.0	0.0	86.74	-40.99	-74.64	 8.08	25.59	-17.58	-14.03	44.39	 0.61	0.0	0.0	0.0	52.35	39.90	73.76	-17.84	 5.16	-0.96	-44.03	-64.63	15.66	-27.96	-2.05	 7.84	 9.52	-5.61	 2.26	 4.91	12.03	 7.21	-56.52	 4.10	 5.11	59.12	-12.95	 0.99	17.27	 7.27	 2.30
-33.76	40.33	-67.12	14.09	13.97	-375.17	11.14	-18.57	 8.12	0.0	0.0	0.0	-35.19	 7.48	14.55	0.0	0.0	0.0	0.0	0.0	0.0	75.39	-37.74	-70.63	 5.55	19.92	-13.18	-21.25	41.82	 0.07	0.0	0.0	0.0	51.07	32.11	79.10	-23.35	 3.56	 3.17	-33.28	-65.08	15.28	-24.84	-6.85	-4.02	 0.89	-7.87	13.30	 8.48	15.93	15.02	-59.37	 6.60	13.90	66.84	-13.20	-2.21	26.34	 5.37	 3.07
-34.17	41.14	-67.15	15.07	14.91	-376.50	12.31	-19.31	12.36	0.0	0.0	0.0	-38.00	 4.22	11.59	0.0	0.0	0.0	0.0	0.0	0.0	59.24	-33.25	-70.67	 2.50	11.89	-6.47	-30.45	38.78	 0.34	0.0	0.0	0.0	51.22	30.87	76.84	-20.47	 2.17	 2.79	-34.00	-64.92	13.85	-25.07	-5.15	 6.79	 1.03	-8.58	 2.53	 8.81	11.64	16.35	-58.80	 6.73	 9.42	61.41	-17.42	-1.86	30.18	 0.97	 3.31
-33.85	42.34	-67.11	17.85	 5.87	-369.16	14.63	-7.43	13.33	0.0	0.0	0.0	-39.35	 1.83	 7.88	0.0	0.0	0.0	0.0	0.0	0.0	47.70	-23.25	-80.17	-4.40	 5.90	-0.96	-37.89	36.41	-0.59	0.0	0.0	0.0	45.61	45.06	64.55	-17.38	 3.61	 1.59	-36.86	-66.01	14.84	-28.25	 1.04	 0.56	 4.95	-5.51	 9.25	 7.44	 7.31	 5.64	-58.50	 8.34	 7.11	58.45	-10.59	-7.21	36.29	 1.99	 3.87
-33.88	41.39	-66.32	18.21	 7.14	-364.72	12.80	-9.89	10.01	0.0	0.0	0.0	-36.20	 4.25	 4.98	0.0	0.0	0.0	0.0	0.0	0.0	55.85	-22.56	-80.44	-2.04	 6.38	-2.22	-29.32	37.16	 1.68	0.0	0.0	0.0	49.62	46.37	68.52	-15.83	 6.12	-0.62	-40.28	-66.71	15.56	-26.26	-2.46	 4.17	 2.90	-4.97	 4.97	 7.03	 7.63	 3.78	-62.90	 4.58	10.27	65.22	-8.21	-7.35	38.52	 5.32	 6.21
-34.02	40.95	-66.29	18.80	14.04	-370.29	10.10	-17.04	 7.44	0.0	0.0	0.0	-33.71	 7.55	 5.76	0.0	0.0	0.0	0.0	0.0	0.0	68.63	-9.68	-81.97	 3.31	 5.79	-3.31	-12.53	25.58	 9.01	0.0	0.0	0.0	49.99	36.63	79.72	-21.19	 4.55	 1.45	-35.96	-65.17	13.49	-26.50	-6.21	 3.88	-0.69	-7.46	 9.26	 7.72	 9.72	 8.94	-66.09	 2.19	 9.32	65.86	-13.78	-1.51	40.58	 2.46	 9.35
